:FULLY-SPECIFIED
:FORCE-ALL-JOINTS-BE-3DOF
:DEGREES
33
root 8.21808 15.8885 -32.3056 7.0936 -8.81708 -3.59392
lfemur -44.6902 9.27025 -16.8545
ltibia 43.753 0 0
lfoot -6.78796 7.25711 0
ltoes -3.78114 0 0
rfemur 13.9554 2.63725 23.0468
rtibia 25.2085 0 0
rfoot 8.8809 0.998506 0
rtoes -8.20127 0 0
lowerback -5.44008 1.16993 0.553357
upperback -2.54615 1.47464 3.04831
thorax 0.316997 0.763088 2.94353
lowerneck -20.8495 -4.57109 -13.0758
upperneck 15.7798 -5.60867 15.6968
head 9.2597 -1.80088 6.9114
lclavicle 2.47311e-14 -1.74097e-14 0
lhumerus -45.4972 0.783216 88.2125
lradius 19.2344 0 0
lwrist -4.57983 0 0
lhand 2.15011 -17.071 0
lfingers 7.12502 0 0
lthumb 27.6396 10.829 0
rclavicle 2.47311e-14 -1.74097e-14 0
rhumerus -44.3429 18.6798 -92.3547
rradius 49.9577 0 0
rwrist -25.1986 0 0
rhand -30.2811 -26.7807 0
rfingers 7.12502 0 0
rthumb -3.58877 -56.7223 0
34
root 8.24719 15.8894 -32.1138 7.05929 -8.99552 -3.52774
lfemur -44.3931 9.26435 -16.9729
ltibia 43.4976 0 0
lfoot -6.68037 7.21611 0
ltoes -3.56659 0 0
rfemur 14.1315 2.61227 22.7921
rtibia 25.3522 0 0
rfoot 8.84882 0.944098 0
rtoes -8.47864 0 0
lowerback -5.48533 1.16381 0.502956
upperback -2.55256 1.46916 3.05065
thorax 0.336636 0.759922 2.97352
lowerneck -20.8968 -4.5607 -13.0682
upperneck 15.8714 -5.58558 15.6276
head 9.29264 -1.79427 6.89122
lclavicle 2.47767e-14 -1.80828e-14 0
lhumerus -45.5254 0.663096 88.2594
lradius 19.1936 0 0
lwrist -4.74281 0 0
lhand 2.3872 -16.9967 0
lfingers 7.12502 0 0
lthumb 27.8672 10.8764 0
rclavicle 2.47767e-14 -1.80828e-14 0
rhumerus -44.4837 18.6417 -92.5127
rradius 49.6934 0 0
rwrist -25.077 0 0
rhand -30.2029 -26.7839 0
rfingers 7.12502 0 0
rthumb -3.51325 -56.7271 0
35
root 8.27615 15.8904 -31.9222 7.02396 -9.16526 -3.45963
lfemur -44.0813 9.25428 -17.0943
ltibia 43.2345 0 0
lfoot -6.58044 7.17538 0
ltoes -3.35674 0 0
rfemur 14.2796 2.58944 22.5395
rtibia 25.4987 0 0
rfoot 8.80331 0.88662 0
rtoes -8.75304 0 0
lowerback -5.53037 1.15614 0.451547
upperback -2.55773 1.4617 3.05237
thorax 0.357619 0.755726 3.00326
lowerneck -20.9425 -4.55084 -13.0607
upperneck 15.9629 -5.56321 15.5579
head 9.32537 -1.78814 6.87079
lclavicle 2.47979e-14 -1.87299e-14 0
lhumerus -45.541 0.534014 88.3051
lradius 19.1629 0 0
lwrist -4.89416 0 0
lhand 2.60993 -16.9284 0
lfingers 7.12502 0 0
lthumb 28.081 10.9194 0
rclavicle 2.47979e-14 -1.87299e-14 0
rhumerus -44.621 18.6007 -92.664
rradius 49.4296 0 0
rwrist -24.9564 0 0
rhand -30.1264 -26.7858 0
rfingers 7.12502 0 0
rthumb -3.43935 -56.7306 0
36
root 8.3049 15.8916 -31.7313 6.98768 -9.32626 -3.38976
lfemur -43.7558 9.24017 -17.2183
ltibia 42.9645 0 0
lfoot -6.48812 7.13498 0
ltoes -3.15181 0 0
rfemur 14.4003 2.56875 22.2894
rtibia 25.6479 0 0
rfoot 8.74485 0.826256 0
rtoes -9.0241 0 0
lowerback -5.57513 1.14696 0.399244
upperback -2.56168 1.45234 3.05349
thorax 0.37987 0.750534 3.03271
lowerneck -20.9866 -4.5415 -13.0533
upperneck 16.0542 -5.54157 15.488
head 9.35784 -1.78248 6.85015
lclavicle 2.47954e-14 -1.93507e-14 0
lhumerus -45.5444 0.396452 88.3494
lradius 19.1422 0 0
lwrist -5.03396 0 0
lhand 2.81836 -16.8662 0
lfingers 7.12502 0 0
lthumb 28.2811 10.9578 0
rclavicle 2.47954e-14 -1.93507e-14 0
rhumerus -44.7547 18.5569 -92.8086
rradius 49.167 0 0
rwrist -24.837 0 0
rhand -30.0516 -26.7865 0
rfingers 7.12502 0 0
rthumb -3.36716 -56.7328 0
37
root 8.33341 15.8929 -31.5413 6.95056 -9.4785 -3.3183
lfemur -43.4174 9.22218 -17.3446
ltibia 42.6881 0 0
lfoot -6.40334 7.09496 0
ltoes -2.95201 0 0
rfemur 14.4941 2.55016 22.042
rtibia 25.7992 0 0
rfoot 8.67391 0.763196 0
rtoes -9.29146 0 0
lowerback -5.61955 1.13633 0.346165
upperback -2.56444 1.44114 3.05402
thorax 0.403316 0.744386 3.06182
lowerneck -21.029 -4.53268 -13.0461
upperneck 16.145 -5.52069 15.4179
head 9.39002 -1.77728 6.82933
lclavicle 2.47699e-14 -1.99449e-14 0
lhumerus -45.5359 0.250888 88.3923
lradius 19.1312 0 0
lwrist -5.1623 0 0
lhand 3.01254 -16.8098 0
lfingers 7.12502 0 0
lthumb 28.4674 10.9919 0
rclavicle 2.47699e-14 -1.99449e-14 0
rhumerus -44.8847 18.5106 -92.9463
rradius 48.9057 0 0
rwrist -24.7188 0 0
rhand -29.9787 -26.7858 0
rfingers 7.12502 0 0
rthumb -3.29675 -56.7336 0
38
root 8.36162 15.8944 -31.3525 6.91269 -9.62194 -3.24542
lfemur -43.0671 9.20043 -17.473
ltibia 42.4062 0 0
lfoot -6.32605 7.05539 0
ltoes -2.75756 0 0
rfemur 14.5617 2.53366 21.7977
rtibia 25.9525 0 0
rfoot 8.59095 0.697625 0
rtoes -9.55474 0 0
lowerback -5.66355 1.12433 0.292425
upperback -2.56605 1.42818 3.05399
thorax 0.427881 0.737319 3.09055
lowerneck -21.0697 -4.5244 -13.039
upperneck 16.2352 -5.50059 15.3478
head 9.42183 -1.77254 6.80838
lclavicle 2.47221e-14 -2.05122e-14 0
lhumerus -45.516 0.0978027 88.4338
lradius 19.1297 0 0
lwrist -5.27926 0 0
lhand 3.1925 -16.7593 0
lfingers 7.12502 0 0
lthumb 28.6402 11.0217 0
rclavicle 2.47221e-14 -2.05122e-14 0
rhumerus -45.0108 18.4618 -93.0772
rradius 48.6464 0 0
rwrist -24.6022 0 0
rhand -29.9077 -26.7839 0
rfingers 7.12502 0 0
rthumb -3.2282 -56.7332 0
39
root 8.3895 15.8961 -31.1653 6.87414 -9.75656 -3.1713
lfemur -42.706 9.17507 -17.6032
ltibia 42.1192 0 0
lfoot -6.25619 7.01633 0
ltoes -2.56867 0 0
rfemur 14.6035 2.51921 21.557
rtibia 26.1073 0 0
rfoot 8.49646 0.629729 0
rtoes -9.81356 0 0
lowerback -5.70706 1.11099 0.238141
upperback -2.56652 1.41353 3.05339
thorax 0.45349 0.729369 3.11887
lowerneck -21.1086 -4.51665 -13.0321
upperneck 16.3247 -5.48127 15.2778
head 9.45325 -1.76825 6.78733
lclavicle 2.46526e-14 -2.10522e-14 0
lhumerus -45.4848 -0.0623228 88.4738
lradius 19.1373 0 0
lwrist -5.38494 0 0
lhand 3.35831 -16.7146 0
lfingers 7.12502 0 0
lthumb 28.7993 11.0472 0
rclavicle 2.46526e-14 -2.10522e-14 0
rhumerus -45.1329 18.4108 -93.2012
rradius 48.3894 0 0
rwrist -24.4872 0 0
rhand -29.8387 -26.7808 0
rfingers 7.12502 0 0
rthumb -3.16158 -56.7316 0
40
root 8.41701 15.8978 -30.98 6.83501 -9.88233 -3.0961
lfemur -42.3349 9.14624 -17.7349
ltibia 41.828 0 0
lfoot -6.1937 6.97784 0
ltoes -2.38556 0 0
rfemur 14.6203 2.5068 21.3202
rtibia 26.2634 0 0
rfoot 8.39089 0.559697 0
rtoes -10.0675 0 0
lowerback -5.75002 1.09639 0.183428
upperback -2.5659 1.39725 3.05226
thorax 0.480069 0.720574 3.14672
lowerneck -21.1458 -4.50942 -13.0254
upperneck 16.4133 -5.46275 15.208
head 9.48422 -1.76442 6.76624
lclavicle 2.45622e-14 -2.15647e-14 0
lhumerus -45.4429 -0.229009 88.5124
lradius 19.1539 0 0
lwrist -5.47942 0 0
lhand 3.51 -16.6756 0
lfingers 7.12502 0 0
lthumb 28.9448 11.0685 0
rclavicle 2.45622e-14 -2.15647e-14 0
rhumerus -45.2509 18.3577 -93.3181
rradius 48.1351 0 0
rwrist -24.3741 0 0
rhand -29.7718 -26.7766 0
rfingers 7.12502 0 0
rthumb -3.09697 -56.7287 0
